<svg width="32" height="33" viewBox="0 0 32 33" fill="none" xmlns="http://www.w3.org/2000/svg">
<path opacity="0.2" d="M28 11.9662V21.0787C28.0001 21.2101 27.9743 21.3402 27.9241 21.4616C27.8739 21.583 27.8003 21.6933 27.7075 21.7862L21.2638 28.23C21.1708 28.3228 21.0605 28.3964 20.9391 28.4466C20.8177 28.4968 20.6876 28.5226 20.5562 28.5225H11.4438C11.3124 28.5226 11.1823 28.4968 11.0609 28.4466C10.9395 28.3964 10.8292 28.3228 10.7363 28.23L4.2925 21.7862C4.19967 21.6933 4.12605 21.583 4.07586 21.4616C4.02568 21.3402 3.9999 21.2101 4 21.0787V11.9662C3.9999 11.8349 4.02568 11.7048 4.07586 11.5834C4.12605 11.462 4.19967 11.3516 4.2925 11.2587L10.7363 4.81496C10.8292 4.72213 10.9395 4.64851 11.0609 4.59832C11.1823 4.54814 11.3124 4.52236 11.4438 4.52246H20.5562C20.6876 4.52236 20.8177 4.54814 20.9391 4.59832C21.0605 4.64851 21.1708 4.72213 21.2638 4.81496L27.7075 11.2587C27.8003 11.3516 27.8739 11.462 27.9241 11.5834C27.9743 11.7048 28.0001 11.8349 28 11.9662Z" fill="#F44336"/>
<path d="M15 17.5225V10.5225C15 10.2573 15.1054 10.0029 15.2929 9.81536C15.4804 9.62783 15.7348 9.52247 16 9.52247C16.2652 9.52247 16.5196 9.62783 16.7071 9.81536C16.8947 10.0029 17 10.2573 17 10.5225V17.5225C17 17.7877 16.8947 18.042 16.7071 18.2296C16.5196 18.4171 16.2652 18.5225 16 18.5225C15.7348 18.5225 15.4804 18.4171 15.2929 18.2296C15.1054 18.042 15 17.7877 15 17.5225ZM29 11.9662V21.0787C29.0008 21.3415 28.9495 21.6017 28.8488 21.8444C28.7482 22.0871 28.6003 22.3074 28.4138 22.4925L21.97 28.9362C21.785 29.1227 21.5647 29.2706 21.322 29.3713C21.0793 29.4719 20.819 29.5233 20.5563 29.5225H11.4438C11.181 29.5233 10.9207 29.4719 10.678 29.3713C10.4353 29.2706 10.2151 29.1227 10.03 28.9362L3.58626 22.4925C3.39973 22.3074 3.25185 22.0871 3.15121 21.8444C3.05057 21.6017 2.99917 21.3415 3.00001 21.0787V11.9662C2.99917 11.7035 3.05057 11.4432 3.15121 11.2005C3.25185 10.9578 3.39973 10.7375 3.58626 10.5525L10.03 4.10872C10.2151 3.9222 10.4353 3.77431 10.678 3.67367C10.9207 3.57303 11.181 3.52163 11.4438 3.52247H20.5563C20.819 3.52163 21.0793 3.57303 21.322 3.67367C21.5647 3.77431 21.785 3.9222 21.97 4.10872L28.4138 10.5525C28.6003 10.7375 28.7482 10.9578 28.8488 11.2005C28.9495 11.4432 29.0008 11.7035 29 11.9662ZM27 11.9662L20.5563 5.52247H11.4438L5.00001 11.9662V21.0787L11.4438 27.5225H20.5563L27 21.0787V11.9662ZM16 20.5225C15.7033 20.5225 15.4133 20.6104 15.1667 20.7753C14.92 20.9401 14.7277 21.1744 14.6142 21.4484C14.5007 21.7225 14.471 22.0241 14.5288 22.3151C14.5867 22.6061 14.7296 22.8734 14.9394 23.0831C15.1491 23.2929 15.4164 23.4358 15.7074 23.4936C15.9983 23.5515 16.2999 23.5218 16.574 23.4083C16.8481 23.2948 17.0824 23.1025 17.2472 22.8558C17.412 22.6092 17.5 22.3191 17.5 22.0225C17.5 21.6246 17.342 21.2431 17.0607 20.9618C16.7794 20.6805 16.3978 20.5225 16 20.5225Z" fill="#F44336"/>
</svg>
