<svg width="16" height="12" viewBox="0 0 16 12" fill="none" xmlns="http://www.w3.org/2000/svg">
<path d="M15.2405 3.76161C15.1277 3.66327 14.9882 3.60066 14.8398 3.58174C14.6913 3.56282 14.5406 3.58845 14.4067 3.65536L11.2686 5.21786L8.64861 0.865987C8.58126 0.754315 8.4862 0.66194 8.37265 0.597818C8.25909 0.533695 8.13089 0.5 8.00049 0.5C7.87008 0.5 7.74188 0.533695 7.62833 0.597818C7.51477 0.66194 7.41971 0.754315 7.35236 0.865987L4.73236 5.21974L1.59549 3.65724C1.46195 3.59092 1.3118 3.56552 1.16388 3.58422C1.01596 3.60293 0.876857 3.6649 0.764031 3.76237C0.651205 3.85984 0.569681 3.98847 0.529689 4.1321C0.489696 4.27574 0.493018 4.42798 0.539236 4.56974L2.85174 11.6547C2.87499 11.7259 2.91393 11.791 2.96568 11.8451C3.01744 11.8992 3.08068 11.941 3.15076 11.9674C3.22083 11.9938 3.29593 12.0041 3.37053 11.9976C3.44512 11.9911 3.5173 11.9679 3.58174 11.9297C3.59736 11.9204 5.19549 10.9997 8.00049 10.9997C10.8055 10.9997 12.4036 11.9204 12.418 11.9291C12.4824 11.9676 12.5547 11.9911 12.6295 11.9979C12.7043 12.0046 12.7797 11.9944 12.85 11.9681C12.9203 11.9417 12.9837 11.8999 13.0357 11.8456C13.0876 11.7914 13.1266 11.7261 13.1499 11.6547L15.4624 4.57161C15.5099 4.42982 15.5142 4.27709 15.4747 4.13285C15.4352 3.98861 15.3537 3.85938 15.2405 3.76161ZM12.3755 10.8016C11.6255 10.4835 10.1305 9.99974 8.00049 9.99974C5.87049 9.99974 4.37549 10.4835 3.62549 10.8016L1.66986 4.81224L4.48674 6.21661C4.65724 6.3007 4.85305 6.31788 5.0356 6.26478C5.21814 6.21169 5.37418 6.09215 5.47299 5.92974L8.00049 1.72849L10.528 5.92849C10.6269 6.09064 10.7828 6.20997 10.9652 6.26305C11.1475 6.31613 11.3431 6.29912 11.5136 6.21536L14.3311 4.81224L12.3755 10.8016ZM10.9924 8.80161C10.972 8.91728 10.9115 9.02207 10.8215 9.09761C10.7316 9.17315 10.6179 9.21461 10.5005 9.21474C10.4712 9.2147 10.4419 9.21219 10.413 9.20724C8.81592 8.93307 7.1838 8.93307 5.58674 9.20724C5.45612 9.23028 5.32169 9.20049 5.21304 9.12442C5.10439 9.04835 5.0304 8.93223 5.00736 8.80161C4.98432 8.67099 5.01411 8.53657 5.09018 8.42792C5.16625 8.31926 5.28237 8.24528 5.41299 8.22224C7.12503 7.92807 8.8747 7.92807 10.5867 8.22224C10.7171 8.24513 10.8331 8.31877 10.9092 8.42702C10.9854 8.53528 11.0155 8.66931 10.993 8.79974L10.9924 8.80161Z" fill="#FFC700"/>
</svg>
