<svg width="32" height="32" viewBox="0 0 40 40" fill="none" xmlns="http://www.w3.org/2000/svg">
<path opacity="0.2" d="M30 13.75V31.25C30 31.5815 29.8683 31.8995 29.6339 32.1339C29.3995 32.3683 29.0815 32.5 28.75 32.5H6.25C5.91848 32.5 5.60054 32.3683 5.36612 32.1339C5.1317 31.8995 5 31.5815 5 31.25V13.75C5 13.4185 5.1317 13.1005 5.36612 12.8661C5.60054 12.6317 5.91848 12.5 6.25 12.5H28.75C29.0815 12.5 29.3995 12.6317 29.6339 12.8661C29.8683 13.1005 30 13.4185 30 13.75Z" fill="#6448E7"/>
<path d="M28.75 11.25H6.25C5.58696 11.25 4.95107 11.5134 4.48223 11.9822C4.01339 12.4511 3.75 13.087 3.75 13.75V31.25C3.75 31.913 4.01339 32.5489 4.48223 33.0178C4.95107 33.4866 5.58696 33.75 6.25 33.75H28.75C29.413 33.75 30.0489 33.4866 30.5178 33.0178C30.9866 32.5489 31.25 31.913 31.25 31.25V13.75C31.25 13.087 30.9866 12.4511 30.5178 11.9822C30.0489 11.5134 29.413 11.25 28.75 11.25ZM28.75 31.25H6.25V13.75H28.75V31.25ZM36.25 8.75V27.5C36.25 27.8315 36.1183 28.1495 35.8839 28.3839C35.6495 28.6183 35.3315 28.75 35 28.75C34.6685 28.75 34.3505 28.6183 34.1161 28.3839C33.8817 28.1495 33.75 27.8315 33.75 27.5V8.75H10C9.66848 8.75 9.35054 8.6183 9.11612 8.38388C8.8817 8.14946 8.75 7.83152 8.75 7.5C8.75 7.16848 8.8817 6.85054 9.11612 6.61612C9.35054 6.3817 9.66848 6.25 10 6.25H33.75C34.413 6.25 35.0489 6.51339 35.5178 6.98223C35.9866 7.45107 36.25 8.08696 36.25 8.75Z" fill="#6448E7"/>
</svg>