<svg width="14" height="14" viewBox="0 0 14 14" fill="none" xmlns="http://www.w3.org/2000/svg">
<path d="M7 0.5C5.71442 0.5 4.45772 0.881218 3.3888 1.59545C2.31988 2.30968 1.48676 3.32484 0.994786 4.51256C0.502816 5.70028 0.374095 7.00721 0.624899 8.26809C0.875703 9.52896 1.49477 10.6872 2.40381 11.5962C3.31285 12.5052 4.47104 13.1243 5.73192 13.3751C6.99279 13.6259 8.29973 13.4972 9.48744 13.0052C10.6752 12.5132 11.6903 11.6801 12.4046 10.6112C13.1188 9.54229 13.5 8.28558 13.5 7C13.4982 5.27665 12.8128 3.62441 11.5942 2.40582C10.3756 1.18722 8.72335 0.50182 7 0.5ZM9.44375 8.73687C9.80551 8.22997 9.99996 7.62275 9.99996 7C9.99996 6.37725 9.80551 5.77003 9.44375 5.26312L11.225 3.4825C12.0488 4.46951 12.5001 5.71436 12.5001 7C12.5001 8.28564 12.0488 9.53049 11.225 10.5175L9.44375 8.73687ZM5 7C5 6.60444 5.1173 6.21776 5.33706 5.88886C5.55683 5.55996 5.86918 5.30362 6.23464 5.15224C6.60009 5.00087 7.00222 4.96126 7.39018 5.03843C7.77815 5.1156 8.13451 5.30608 8.41422 5.58579C8.69392 5.86549 8.8844 6.22186 8.96157 6.60982C9.03874 6.99778 8.99914 7.39991 8.84776 7.76537C8.69639 8.13082 8.44004 8.44318 8.11114 8.66294C7.78224 8.8827 7.39557 9 7 9C6.46957 9 5.96086 8.78929 5.58579 8.41421C5.21072 8.03914 5 7.53043 5 7ZM10.5175 2.775L8.73688 4.55625C8.22997 4.1945 7.62276 4.00005 7 4.00005C6.37725 4.00005 5.77004 4.1945 5.26313 4.55625L3.4825 2.775C4.46951 1.95119 5.71437 1.49994 7 1.49994C8.28564 1.49994 9.53049 1.95119 10.5175 2.775ZM2.775 3.4825L4.55625 5.26312C4.1945 5.77003 4.00005 6.37725 4.00005 7C4.00005 7.62275 4.1945 8.22997 4.55625 8.73687L2.775 10.5175C1.95119 9.53049 1.49994 8.28564 1.49994 7C1.49994 5.71436 1.95119 4.46951 2.775 3.4825ZM3.4825 11.225L5.26313 9.44375C5.77004 9.8055 6.37725 9.99995 7 9.99995C7.62276 9.99995 8.22997 9.8055 8.73688 9.44375L10.5175 11.225C9.53049 12.0488 8.28564 12.5001 7 12.5001C5.71437 12.5001 4.46951 12.0488 3.4825 11.225Z" fill="black"/>
</svg>
