<svg width="23" height="25" viewBox="0 0 23 25" fill="none" xmlns="http://www.w3.org/2000/svg">
<path d="M21.7817 8.10283C21.3316 7.79741 20.7153 7.92065 20.4099 8.37611C18.6202 11.0714 14.8212 11.216 14.6229 11.216C14.5854 11.216 14.5693 11.216 14.5318 11.216C9.84863 11.216 8.05894 15.2133 7.98929 15.3741C7.77495 15.8778 8.00536 16.4565 8.49297 16.6762C8.62157 16.7298 8.76625 16.7673 8.88949 16.7673C9.26993 16.7673 9.62894 16.5529 9.79505 16.1725C9.81112 16.135 11.0435 13.3862 14.205 13.2093V18.3265C14.0764 19.4304 13.5566 20.2984 12.6296 20.9468C11.6705 21.6166 10.3898 21.9595 8.81447 21.9595C6.93369 21.9595 5.39585 21.3111 4.25988 20.0251C3.10248 18.7391 2.52378 16.9173 2.52378 14.565L2.53986 8.92266C2.63095 6.84362 3.18821 5.19862 4.25988 4.02514C5.41728 2.73914 6.93369 2.09078 8.81447 2.09078C10.3898 2.09078 11.6705 2.43371 12.6296 3.1035C13.5888 3.7733 14.1299 4.69493 14.221 5.88984C14.221 5.92735 14.221 5.98093 14.221 6.01844C14.221 6.70431 14.7837 7.26693 15.4695 7.26693C16.1554 7.26693 16.718 6.70431 16.718 6.01844C16.718 5.98093 16.718 5.92735 16.718 5.88984C16.5358 4.10015 15.7214 2.69091 14.2585 1.6246C12.7957 0.547575 10.9739 0.0224609 8.76625 0.0224609C6.14602 0.0224609 4.02948 0.890509 2.42198 2.60518C0.905567 4.21268 0.107168 6.32922 0.016076 8.93337C0.016076 9.11556 0 9.29239 0 9.47457L0.016076 14.5543H0C0 17.4263 0.814475 19.7251 2.42198 21.4397C4.02948 23.1544 6.14602 24.0225 8.76625 24.0225C10.9739 24.0225 12.7957 23.4973 14.2639 22.431C15.6035 21.4558 16.3965 20.1698 16.6698 18.5784L16.7234 12.9039C18.3684 12.5074 20.6082 11.6018 22.0228 9.46921C22.3764 9.02447 22.2532 8.40826 21.7817 8.10283Z" fill="black"/>
</svg>
