<svg width="16" height="11" viewBox="0 0 16 11" fill="none" xmlns="http://www.w3.org/2000/svg">
<path d="M15.7899 5.31996C15.768 5.27059 15.2386 4.09621 14.0618 2.91934C12.4936 1.35121 10.513 0.522461 8.333 0.522461C6.153 0.522461 4.17238 1.35121 2.60425 2.91934C1.42738 4.09621 0.895502 5.27246 0.876127 5.31996C0.847698 5.38391 0.833008 5.45311 0.833008 5.52309C0.833008 5.59307 0.847698 5.66227 0.876127 5.72621C0.898002 5.77559 1.42738 6.94934 2.60425 8.12621C4.17238 9.69371 6.153 10.5225 8.333 10.5225C10.513 10.5225 12.4936 9.69371 14.0618 8.12621C15.2386 6.94934 15.768 5.77559 15.7899 5.72621C15.8183 5.66227 15.833 5.59307 15.833 5.52309C15.833 5.45311 15.8183 5.38391 15.7899 5.31996ZM8.333 9.52246C6.40925 9.52246 4.72863 8.82309 3.33738 7.44434C2.76653 6.87664 2.28087 6.22931 1.8955 5.52246C2.28077 4.81555 2.76644 4.1682 3.33738 3.60059C4.72863 2.22184 6.40925 1.52246 8.333 1.52246C10.2568 1.52246 11.9374 2.22184 13.3286 3.60059C13.9006 4.16806 14.3873 4.81541 14.7736 5.52246C14.323 6.36371 12.3599 9.52246 8.333 9.52246ZM8.333 2.52246C7.73966 2.52246 7.15964 2.69841 6.66629 3.02805C6.17294 3.3577 5.78843 3.82623 5.56136 4.37441C5.3343 4.92259 5.27489 5.52579 5.39065 6.10773C5.5064 6.68967 5.79212 7.22422 6.21168 7.64378C6.63124 8.06334 7.16579 8.34906 7.74773 8.46482C8.32967 8.58057 8.93287 8.52116 9.48105 8.2941C10.0292 8.06704 10.4978 7.68252 10.8274 7.18917C11.1571 6.69582 11.333 6.1158 11.333 5.52246C11.3322 4.72707 11.0158 3.96448 10.4534 3.40205C9.89098 2.83962 9.1284 2.52329 8.333 2.52246ZM8.333 7.52246C7.93744 7.52246 7.55076 7.40516 7.22186 7.1854C6.89296 6.96564 6.63662 6.65328 6.48524 6.28783C6.33387 5.92238 6.29426 5.52024 6.37143 5.13228C6.4486 4.74432 6.63908 4.38795 6.91879 4.10825C7.19849 3.82854 7.55486 3.63806 7.94282 3.56089C8.33078 3.48372 8.73292 3.52333 9.09837 3.6747C9.46382 3.82608 9.77618 4.08242 9.99594 4.41132C10.2157 4.74022 10.333 5.1269 10.333 5.52246C10.333 6.05289 10.1223 6.5616 9.74722 6.93667C9.37214 7.31175 8.86343 7.52246 8.333 7.52246Z" fill="black"/>
</svg>
