<svg width="28" height="27" viewBox="0 0 28 27" fill="none" xmlns="http://www.w3.org/2000/svg">
<path d="M26.9734 20.9382C27.6787 19.5047 28.0302 17.9231 27.9986 16.3258C27.9669 14.7285 27.553 13.162 26.7915 11.7575C26.0301 10.3531 24.9432 9.1515 23.6219 8.25343C22.3006 7.35535 20.7833 6.78692 19.1972 6.59574C18.669 5.37246 17.9018 4.26706 16.9404 3.34448C15.979 2.4219 14.843 1.70075 13.599 1.22338C12.355 0.746016 11.0282 0.522066 9.69646 0.564688C8.36472 0.60731 7.05492 0.915645 5.84401 1.47158C4.6331 2.02751 3.5455 2.81983 2.6451 3.802C1.74471 4.78416 1.04967 5.93636 0.60082 7.19091C0.151971 8.44546 -0.0416377 9.77707 0.0313685 11.1075C0.104375 12.4379 0.442523 13.7403 1.02595 14.9382L0.0684493 18.2907C-0.00602128 18.5511 -0.0190525 18.8252 0.030381 19.0914C0.0798145 19.3577 0.190364 19.6088 0.353329 19.8251C0.516295 20.0414 0.727229 20.2169 0.969533 20.3378C1.21184 20.4588 1.4789 20.5218 1.7497 20.522C1.9121 20.5224 2.07373 20.4997 2.2297 20.4545L5.5822 19.497C6.59347 19.9969 7.68304 20.3195 8.80345 20.4507C9.33685 21.7 10.1192 22.8276 11.1027 23.7645C12.0863 24.7015 13.2504 25.4282 14.5241 25.9005C15.7978 26.3727 17.1543 26.5804 18.5109 26.5111C19.8675 26.4417 21.1958 26.0966 22.4147 25.497L25.7672 26.4545C26.0671 26.5399 26.3844 26.5437 26.6863 26.4653C26.9881 26.387 27.2636 26.2294 27.4841 26.0089C27.7046 25.7884 27.8622 25.5129 27.9405 25.2111C28.0189 24.9092 28.0151 24.5919 27.9297 24.292L26.9734 20.9382ZM6.1697 17.5482C5.9404 17.423 5.6712 17.3925 5.4197 17.4632L2.11845 18.407L3.0622 15.1057C3.13293 14.8542 3.10242 14.585 2.9772 14.3557C1.94551 12.5015 1.69265 10.3135 2.27424 8.27283C2.85584 6.2322 4.22425 4.50618 6.07845 3.47449C7.93264 2.4428 10.1207 2.18994 12.1614 2.77154C14.202 3.35313 15.928 4.72155 16.9597 6.57574C14.5022 6.83606 12.2277 7.99579 10.5737 9.83188C8.91969 11.668 8.00291 14.0508 7.9997 16.522C8.00012 17.1216 8.05493 17.7198 8.16345 18.3095C7.46756 18.1469 6.79688 17.8908 6.1697 17.5482ZM24.9409 21.1057L25.8847 24.407L22.5834 23.4632C22.3319 23.3925 22.0627 23.423 21.8334 23.5482C20.1454 24.4677 18.1825 24.7481 16.3045 24.338C14.4265 23.928 12.7591 22.8549 11.6079 21.3154C10.4568 19.776 9.8989 17.8733 10.0365 15.956C10.1742 14.0386 10.9981 12.2351 12.3573 10.8759C13.7166 9.51663 15.5201 8.69271 17.4374 8.55507C19.3547 8.41744 21.2575 8.97532 22.7969 10.1265C24.3364 11.2777 25.4094 12.945 25.8195 14.823C26.2296 16.701 25.9492 18.6639 25.0297 20.352C24.9022 20.5818 24.8703 20.8526 24.9409 21.1057ZM15.9997 15.022C15.9997 15.3187 15.9117 15.6087 15.7469 15.8553C15.5821 16.102 15.3478 16.2943 15.0737 16.4078C14.7996 16.5213 14.498 16.551 14.2071 16.4932C13.9161 16.4353 13.6488 16.2924 13.439 16.0827C13.2293 15.8729 13.0864 15.6056 13.0285 15.3146C12.9706 15.0237 13.0003 14.7221 13.1139 14.448C13.2274 14.1739 13.4197 13.9396 13.6663 13.7748C13.913 13.61 14.203 13.522 14.4997 13.522C14.8975 13.522 15.2791 13.68 15.5604 13.9613C15.8417 14.2426 15.9997 14.6242 15.9997 15.022ZM22.9997 15.022C22.9997 15.3187 22.9117 15.6087 22.7469 15.8553C22.5821 16.102 22.3478 16.2943 22.0737 16.4078C21.7996 16.5213 21.498 16.551 21.2071 16.4932C20.9161 16.4353 20.6488 16.2924 20.439 16.0827C20.2293 15.8729 20.0864 15.6056 20.0285 15.3146C19.9706 15.0237 20.0003 14.7221 20.1139 14.448C20.2274 14.1739 20.4197 13.9396 20.6663 13.7748C20.913 13.61 21.203 13.522 21.4997 13.522C21.8975 13.522 22.2791 13.68 22.5604 13.9613C22.8417 14.2426 22.9997 14.6242 22.9997 15.022Z" fill="#6448E7"/>
</svg>
