<svg width="22" height="29" viewBox="0 0 22 29" fill="none" xmlns="http://www.w3.org/2000/svg">
<path d="M17.0002 27.5227C17.0002 27.7879 16.8948 28.0423 16.7073 28.2298C16.5197 28.4174 16.2654 28.5227 16.0002 28.5227H6.00016C5.73495 28.5227 5.48059 28.4174 5.29306 28.2298C5.10552 28.0423 5.00016 27.7879 5.00016 27.5227C5.00016 27.2575 5.10552 27.0032 5.29306 26.8156C5.48059 26.6281 5.73495 26.5227 6.00016 26.5227H16.0002C16.2654 26.5227 16.5197 26.6281 16.7073 26.8156C16.8948 27.0032 17.0002 27.2575 17.0002 27.5227ZM22.0002 11.5227C22.0045 13.1898 21.6279 14.8358 20.8991 16.3351C20.1704 17.8344 19.1087 19.1475 17.7952 20.174C17.5496 20.3622 17.3502 20.6042 17.2125 20.8813C17.0747 21.1583 17.0021 21.4633 17.0002 21.7727V22.5227C17.0002 23.0532 16.7894 23.5619 16.4144 23.9369C16.0393 24.312 15.5306 24.5227 15.0002 24.5227H7.00016C6.46973 24.5227 5.96102 24.312 5.58595 23.9369C5.21088 23.5619 5.00016 23.0532 5.00016 22.5227V21.7727C4.99996 21.467 4.92965 21.1653 4.79465 20.891C4.65965 20.6167 4.46355 20.3769 4.22141 20.1902C2.91133 19.1699 1.85049 17.865 1.11916 16.3742C0.387832 14.8834 0.00518162 13.2457 0.000163562 11.5852C-0.0323364 5.62647 4.78266 0.666474 10.7352 0.522724C12.2018 0.48738 13.6608 0.745791 15.0261 1.28275C16.3914 1.8197 17.6355 2.62435 18.6852 3.64934C19.7349 4.67432 20.5689 5.89893 21.1382 7.25109C21.7075 8.60324 22.0006 10.0556 22.0002 11.5227ZM20.0002 11.5227C20.0005 10.3223 19.7607 9.13394 19.2949 8.02759C18.8291 6.92123 18.1466 5.91925 17.2877 5.08061C16.4288 4.24198 15.4108 3.58364 14.2936 3.14436C13.1765 2.70507 11.9827 2.49371 10.7827 2.52272C5.90766 2.63772 1.97391 6.69648 2.00016 11.5715C2.00464 12.9297 2.31803 14.2692 2.9166 15.4884C3.51518 16.7077 4.38327 17.7748 5.45516 18.609C5.93697 18.9835 6.32668 19.4634 6.59448 20.0117C6.86227 20.5601 7.00104 21.1625 7.00016 21.7727V22.5227H10.0002V16.9365L6.29266 13.2302C6.10502 13.0426 5.99961 12.7881 5.99961 12.5227C5.99961 12.2574 6.10502 12.0029 6.29266 11.8152C6.4803 11.6276 6.7348 11.5222 7.00016 11.5222C7.26553 11.5222 7.52002 11.6276 7.70766 11.8152L11.0002 15.109L14.2927 11.8152C14.3856 11.7223 14.4959 11.6486 14.6173 11.5983C14.7387 11.548 14.8688 11.5222 15.0002 11.5222C15.1316 11.5222 15.2617 11.548 15.3831 11.5983C15.5045 11.6486 15.6148 11.7223 15.7077 11.8152C15.8006 11.9081 15.8743 12.0184 15.9246 12.1398C15.9748 12.2612 16.0007 12.3913 16.0007 12.5227C16.0007 12.6541 15.9748 12.7842 15.9246 12.9056C15.8743 13.027 15.8006 13.1373 15.7077 13.2302L12.0002 16.9365V22.5227H15.0002V21.7727C15.0013 21.1607 15.1423 20.557 15.4125 20.0078C15.6826 19.4586 16.0748 18.9784 16.5589 18.604C17.634 17.7638 18.503 16.689 19.0994 15.4618C19.6958 14.2345 20.0039 12.8872 20.0002 11.5227Z" fill="#6448E7"/>
</svg>
