<svg width="26" height="27" viewBox="0 0 26 27" fill="none" xmlns="http://www.w3.org/2000/svg">
<path d="M13 0.522461C10.4288 0.522461 7.91543 1.2849 5.77759 2.71336C3.63975 4.14181 1.97351 6.17214 0.989572 8.54758C0.0056327 10.923 -0.251811 13.5369 0.249797 16.0586C0.751405 18.5804 1.98953 20.8968 3.80762 22.7148C5.6257 24.5329 7.94208 25.7711 10.4638 26.2727C12.9856 26.7743 15.5995 26.5168 17.9749 25.5329C20.3503 24.549 22.3807 22.8827 23.8091 20.7449C25.2376 18.607 26 16.0936 26 13.5225C25.9964 10.0758 24.6256 6.77128 22.1884 4.33409C19.7512 1.89691 16.4467 0.526101 13 0.522461ZM17.8875 16.9962C18.611 15.9824 18.9999 14.768 18.9999 13.5225C18.9999 12.277 18.611 11.0625 17.8875 10.0487L21.45 6.48746C23.0976 8.46148 24.0001 10.9512 24.0001 13.5225C24.0001 16.0937 23.0976 18.5834 21.45 20.5575L17.8875 16.9962ZM9.00001 13.5225C9.00001 12.7313 9.2346 11.958 9.67413 11.3002C10.1137 10.6424 10.7384 10.1297 11.4693 9.82694C12.2002 9.52419 13.0044 9.44498 13.7804 9.59932C14.5563 9.75366 15.269 10.1346 15.8284 10.694C16.3878 11.2534 16.7688 11.9662 16.9231 12.7421C17.0775 13.518 16.9983 14.3223 16.6955 15.0532C16.3928 15.7841 15.8801 16.4088 15.2223 16.8483C14.5645 17.2879 13.7911 17.5225 13 17.5225C11.9391 17.5225 10.9217 17.101 10.1716 16.3509C9.42143 15.6007 9.00001 14.5833 9.00001 13.5225ZM20.035 5.07246L16.4738 8.63496C15.4599 7.91145 14.2455 7.52255 13 7.52255C11.7545 7.52255 10.5401 7.91145 9.52626 8.63496L5.96501 5.07246C7.93903 3.42483 10.4287 2.52234 13 2.52234C15.5713 2.52234 18.061 3.42483 20.035 5.07246ZM4.55001 6.48746L8.11251 10.0487C7.389 11.0625 7.0001 12.277 7.0001 13.5225C7.0001 14.768 7.389 15.9824 8.11251 16.9962L4.55001 20.5575C2.90238 18.5834 1.99988 16.0937 1.99988 13.5225C1.99988 10.9512 2.90238 8.46148 4.55001 6.48746ZM5.96501 21.9725L9.52626 18.41C10.5401 19.1335 11.7545 19.5224 13 19.5224C14.2455 19.5224 15.4599 19.1335 16.4738 18.41L20.035 21.9725C18.061 23.6201 15.5713 24.5226 13 24.5226C10.4287 24.5226 7.93903 23.6201 5.96501 21.9725Z" fill="#6448E7"/>
</svg>
