<svg width="32" height="33" viewBox="0 0 32 33" fill="none" xmlns="http://www.w3.org/2000/svg">
<path opacity="0.2" d="M9.49978 16.0222L16.4998 23.0222L12.8748 26.6472C12.3122 27.2098 11.5491 27.5259 10.7535 27.5259C9.95792 27.5259 9.19489 27.2098 8.63228 26.6472L5.87478 23.886C5.31336 23.3235 4.99805 22.5613 4.99805 21.7666C4.99805 20.9719 5.31336 20.2097 5.87478 19.6472L9.49978 16.0222ZM26.1248 9.15849L23.3635 6.39724C22.8011 5.83582 22.0389 5.52051 21.2442 5.52051C20.4495 5.52051 19.6872 5.83582 19.1248 6.39724L15.4998 10.0222L22.4998 17.0222L26.1248 13.3972C26.6862 12.8348 27.0015 12.0726 27.0015 11.2779C27.0015 10.4832 26.6862 9.72094 26.1248 9.15849Z" fill="#6448E7"/>
<path d="M18.7076 17.8148C18.6147 17.7218 18.5044 17.648 18.383 17.5977C18.2616 17.5474 18.1315 17.5215 18.0001 17.5215C17.8687 17.5215 17.7385 17.5474 17.6171 17.5977C17.4957 17.648 17.3854 17.7218 17.2926 17.8148L15.0001 20.1085L12.4138 17.5223L14.7076 15.2298C14.8952 15.0421 15.0006 14.7876 15.0006 14.5223C15.0006 14.2569 14.8952 14.0024 14.7076 13.8148C14.5199 13.6271 14.2654 13.5217 14.0001 13.5217C13.7347 13.5217 13.4802 13.6271 13.2926 13.8148L11.0001 16.1085L8.70757 13.8148C8.51993 13.6271 8.26543 13.5217 8.00007 13.5217C7.7347 13.5217 7.48021 13.6271 7.29257 13.8148C7.10493 14.0024 6.99951 14.2569 6.99951 14.5223C6.99951 14.7876 7.10493 15.0421 7.29257 15.2298L8.08632 16.0223L5.17132 18.936C4.79979 19.3075 4.50507 19.7485 4.30399 20.2338C4.10292 20.7192 3.99942 21.2394 3.99942 21.7648C3.99942 22.2901 4.10292 22.8104 4.30399 23.2957C4.50507 23.7811 4.79979 24.2221 5.17132 24.5935L5.84382 25.2648L2.29257 28.8148C2.19966 28.9077 2.12596 29.018 2.07567 29.1394C2.02539 29.2608 1.99951 29.3909 1.99951 29.5223C1.99951 29.6537 2.02539 29.7838 2.07567 29.9052C2.12596 30.0266 2.19966 30.1369 2.29257 30.2298C2.48021 30.4174 2.7347 30.5228 3.00007 30.5228C3.13146 30.5228 3.26157 30.4969 3.38296 30.4467C3.50436 30.3964 3.61466 30.3227 3.70757 30.2298L7.25757 26.6785L7.92882 27.351C8.30026 27.7226 8.74126 28.0173 9.22662 28.2183C9.71198 28.4194 10.2322 28.5229 10.7576 28.5229C11.2829 28.5229 11.8032 28.4194 12.2885 28.2183C12.7739 28.0173 13.2149 27.7226 13.5863 27.351L16.5001 24.436L17.2926 25.2298C17.3855 25.3227 17.4958 25.3964 17.6172 25.4467C17.7386 25.4969 17.8687 25.5228 18.0001 25.5228C18.1315 25.5228 18.2616 25.4969 18.383 25.4467C18.5044 25.3964 18.6147 25.3227 18.7076 25.2298C18.8005 25.1369 18.8742 25.0266 18.9245 24.9052C18.9747 24.7838 19.0006 24.6537 19.0006 24.5223C19.0006 24.3909 18.9747 24.2608 18.9245 24.1394C18.8742 24.018 18.8005 23.9077 18.7076 23.8148L16.4138 21.5223L18.7076 19.2298C18.8005 19.1369 18.8743 19.0266 18.9246 18.9052C18.975 18.7838 19.0009 18.6537 19.0009 18.5223C19.0009 18.3909 18.975 18.2607 18.9246 18.1393C18.8743 18.0179 18.8005 17.9076 18.7076 17.8148ZM12.1713 25.9398C11.7963 26.3146 11.2878 26.5251 10.7576 26.5251C10.2274 26.5251 9.71885 26.3146 9.34382 25.9398L6.58632 23.1785C6.21153 22.8035 6.00099 22.295 6.00099 21.7648C6.00099 21.2346 6.21153 20.7261 6.58632 20.351L9.50007 17.436L15.0863 23.0223L12.1713 25.9398ZM29.7076 2.81477C29.6147 2.72179 29.5044 2.64804 29.383 2.59771C29.2616 2.54739 29.1315 2.52148 29.0001 2.52148C28.8687 2.52148 28.7385 2.54739 28.6171 2.59771C28.4957 2.64804 28.3854 2.72179 28.2926 2.81477L24.7426 6.36602L24.0713 5.69352C23.3203 4.94471 22.3031 4.52421 21.2426 4.52421C20.1821 4.52421 19.1648 4.94471 18.4138 5.69352L15.5001 8.60852L14.7076 7.81477C14.5199 7.62713 14.2654 7.52172 14.0001 7.52172C13.7347 7.52172 13.4802 7.62713 13.2926 7.81477C13.1049 8.00241 12.9995 8.25691 12.9995 8.52227C12.9995 8.78764 13.1049 9.04213 13.2926 9.22977L23.2926 19.2298C23.3855 19.3227 23.4958 19.3964 23.6172 19.4467C23.7386 19.4969 23.8687 19.5228 24.0001 19.5228C24.1315 19.5228 24.2616 19.4969 24.383 19.4467C24.5044 19.3964 24.6147 19.3227 24.7076 19.2298C24.8005 19.1369 24.8742 19.0266 24.9245 18.9052C24.9747 18.7838 25.0006 18.6537 25.0006 18.5223C25.0006 18.3909 24.9747 18.2608 24.9245 18.1394C24.8742 18.018 24.8005 17.9077 24.7076 17.8148L23.9138 17.0223L26.8288 14.1085C27.2004 13.7371 27.4951 13.2961 27.6961 12.8107C27.8972 12.3254 28.0007 11.8051 28.0007 11.2798C28.0007 10.7544 27.8972 10.2342 27.6961 9.74883C27.4951 9.26346 27.2004 8.82247 26.8288 8.45102L26.1563 7.77977L29.7076 4.22977C29.8005 4.1369 29.8743 4.02661 29.9246 3.90521C29.975 3.78381 30.0009 3.65369 30.0009 3.52227C30.0009 3.39086 29.975 3.26073 29.9246 3.13933C29.8743 3.01793 29.8005 2.90764 29.7076 2.81477ZM25.4138 12.6898L22.5001 15.6085L16.9138 10.0223L19.8288 7.10852C20.2039 6.73373 20.7124 6.5232 21.2426 6.5232C21.7728 6.5232 22.2813 6.73373 22.6563 7.10852L25.4138 9.85852C25.6005 10.0444 25.7487 10.2652 25.8498 10.5085C25.9509 10.7518 26.0029 11.0126 26.0029 11.276C26.0029 11.5394 25.9509 11.8003 25.8498 12.0435C25.7487 12.2868 25.6005 12.5077 25.4138 12.6935V12.6898Z" fill="#6448E7"/>
</svg>
