<svg width="32" height="32" viewBox="0 0 32 32" fill="none" xmlns="http://www.w3.org/2000/svg">
<path opacity="0.2" d="M23.0163 18.462C22.8793 18.5824 22.7774 18.7377 22.7215 18.9113C22.6656 19.085 22.6577 19.2705 22.6988 19.4483L24.3888 26.7658C24.4335 26.9569 24.4209 27.1569 24.3527 27.341C24.2844 27.525 24.1636 27.6849 24.0051 27.8007C23.8467 27.9165 23.6576 27.9831 23.4616 27.9923C23.2655 28.0014 23.0711 27.9526 22.9026 27.852L16.5151 23.977C16.3599 23.8827 16.1817 23.8327 16.0001 23.8327C15.8184 23.8327 15.6403 23.8827 15.4851 23.977L9.09756 27.852C8.92902 27.9526 8.73461 28.0014 8.53856 27.9923C8.3425 27.9831 8.15346 27.9165 7.99501 27.8007C7.83655 27.6849 7.71567 27.525 7.64744 27.341C7.57921 27.1569 7.56665 26.9569 7.61131 26.7658L9.30131 19.4483C9.34239 19.2705 9.33456 19.085 9.27866 18.9113C9.22275 18.7377 9.12086 18.5824 8.98381 18.462L3.34506 13.5433C3.19431 13.4152 3.08495 13.2452 3.03083 13.0549C2.9767 12.8646 2.98024 12.6625 3.04099 12.4742C3.10175 12.2859 3.21699 12.1199 3.37213 11.9971C3.52727 11.8744 3.71535 11.8004 3.91256 11.7845L11.3451 11.142C11.5264 11.1259 11.6999 11.0605 11.8468 10.953C11.9937 10.8455 12.1085 10.7 12.1788 10.532L15.0826 3.61203C15.1601 3.43312 15.2883 3.28079 15.4513 3.17378C15.6143 3.06678 15.8051 3.00977 16.0001 3.00977C16.1951 3.00977 16.3858 3.06678 16.5488 3.17378C16.7118 3.28079 16.84 3.43312 16.9176 3.61203L19.8213 10.532C19.8916 10.7 20.0064 10.8455 20.1533 10.953C20.3002 11.0605 20.4737 11.1259 20.6551 11.142L28.0876 11.7845C28.2848 11.8004 28.4728 11.8744 28.628 11.9971C28.7831 12.1199 28.8984 12.2859 28.9591 12.4742C29.0199 12.6625 29.0234 12.8646 28.9693 13.0549C28.9152 13.2452 28.8058 13.4152 28.6551 13.5433L23.0163 18.462Z" fill="#6448E7"/>
<path d="M29.8999 12.161C29.7788 11.7877 29.5506 11.4583 29.2436 11.2138C28.9367 10.9693 28.5646 10.8206 28.1737 10.786L20.7499 10.146L17.8399 3.226C17.6884 2.8629 17.4329 2.55273 17.1054 2.33457C16.778 2.11641 16.3934 2 15.9999 2C15.6065 2 15.2218 2.11641 14.8944 2.33457C14.567 2.55273 14.3114 2.8629 14.1599 3.226L11.2587 10.146L3.82618 10.7898C3.43372 10.8227 3.05974 10.9708 2.75113 11.2155C2.44251 11.4602 2.21301 11.7905 2.0914 12.1651C1.96978 12.5397 1.96147 12.9419 2.0675 13.3212C2.17353 13.7005 2.38919 14.04 2.68743 14.2973L8.32618 19.2248L6.63618 26.5422C6.54682 26.9252 6.57232 27.326 6.70949 27.6945C6.84666 28.063 7.08943 28.3829 7.40742 28.6142C7.72542 28.8455 8.10455 28.9779 8.4974 28.9949C8.89025 29.0119 9.27939 28.9127 9.61618 28.7097L15.9912 24.8347L22.3799 28.7097C22.7167 28.9127 23.1059 29.0119 23.4987 28.9949C23.8916 28.9779 24.2707 28.8455 24.5887 28.6142C24.9067 28.3829 25.1494 28.063 25.2866 27.6945C25.4238 27.326 25.4493 26.9252 25.3599 26.5422L23.6712 19.2173L29.3087 14.2973C29.6069 14.0391 29.8221 13.6986 29.9273 13.3185C30.0325 12.9384 30.023 12.5357 29.8999 12.161ZM27.9974 12.786L22.3599 17.706C22.0856 17.9447 21.8814 18.2536 21.7696 18.5996C21.6577 18.9457 21.6422 19.3156 21.7249 19.6698L23.4187 26.9998L17.0349 23.1248C16.7235 22.9351 16.3658 22.8348 16.0012 22.8348C15.6365 22.8348 15.2789 22.9351 14.9674 23.1248L8.59243 26.9998L10.2749 19.6747C10.3576 19.3206 10.3422 18.9507 10.2303 18.6046C10.1184 18.2586 9.9143 17.9497 9.63993 17.711L3.99993 12.7935C3.99947 12.7898 3.99947 12.786 3.99993 12.7823L11.4299 12.1398C11.7927 12.1078 12.1398 11.9774 12.4339 11.7626C12.728 11.5478 12.9578 11.2568 13.0987 10.921L15.9999 4.00975L18.8999 10.921C19.0408 11.2568 19.2706 11.5478 19.5647 11.7626C19.8588 11.9774 20.2059 12.1078 20.5687 12.1398L27.9999 12.7823C27.9999 12.7823 27.9999 12.7898 27.9999 12.791L27.9974 12.786Z" fill="#6448E7"/>
</svg>
