<svg width="22" height="27" viewBox="0 0 22 27" fill="none" xmlns="http://www.w3.org/2000/svg">
<path d="M21.7075 7.81496L14.7075 0.814961C14.6146 0.722127 14.5042 0.648513 14.3829 0.598325C14.2615 0.548137 14.1314 0.522358 14 0.522461H2C1.46957 0.522461 0.960859 0.733175 0.585786 1.10825C0.210714 1.48332 0 1.99203 0 2.52246V24.5225C0 25.0529 0.210714 25.5616 0.585786 25.9367C0.960859 26.3117 1.46957 26.5225 2 26.5225H20C20.5304 26.5225 21.0391 26.3117 21.4142 25.9367C21.7893 25.5616 22 25.0529 22 24.5225V8.52246C22.0001 8.3911 21.9743 8.26101 21.9241 8.13961C21.8739 8.01822 21.8003 7.9079 21.7075 7.81496ZM15 3.93621L18.5863 7.52246H15V3.93621ZM20 24.5225H2V2.52246H13V8.52246C13 8.78768 13.1054 9.04203 13.2929 9.22957C13.4804 9.4171 13.7348 9.52246 14 9.52246H20V24.5225ZM16 14.5225C16 14.7877 15.8946 15.042 15.7071 15.2296C15.5196 15.4171 15.2652 15.5225 15 15.5225H7C6.73478 15.5225 6.48043 15.4171 6.29289 15.2296C6.10536 15.042 6 14.7877 6 14.5225C6 14.2572 6.10536 14.0029 6.29289 13.8154C6.48043 13.6278 6.73478 13.5225 7 13.5225H15C15.2652 13.5225 15.5196 13.6278 15.7071 13.8154C15.8946 14.0029 16 14.2572 16 14.5225ZM16 18.5225C16 18.7877 15.8946 19.042 15.7071 19.2296C15.5196 19.4171 15.2652 19.5225 15 19.5225H7C6.73478 19.5225 6.48043 19.4171 6.29289 19.2296C6.10536 19.042 6 18.7877 6 18.5225C6 18.2572 6.10536 18.0029 6.29289 17.8154C6.48043 17.6278 6.73478 17.5225 7 17.5225H15C15.2652 17.5225 15.5196 17.6278 15.7071 17.8154C15.8946 18.0029 16 18.2572 16 18.5225Z" fill="#6448E7"/>
</svg>
